<?xml version="1.0" encoding="UTF-8"?>
<svg xmlns="http://www.w3.org/2000/svg" id="Layer_1" data-name="Layer 1" viewBox="0 0 24 24" width="512" height="512"><path d="M3,2.5c0-.276,.224-.5,.5-.5h4.915c1.468,0,2.848,.718,3.689,1.922l5.113,7.317c.158,.227,.103,.538-.124,.696-.087,.061-.187,.09-.286,.09-.157,0-.312-.074-.41-.213l-3.766-5.389L3.796,12.903c-.089,.065-.193,.097-.296,.097-.153,0-.306-.071-.403-.204-.163-.223-.115-.536,.107-.699L12.059,5.603l-.774-1.108c-.654-.936-1.728-1.495-2.869-1.495H3.5c-.276,0-.5-.224-.5-.5Zm13,3c0-1.378,1.121-2.5,2.5-2.5s2.5,1.122,2.5,2.5-1.121,2.5-2.5,2.5-2.5-1.122-2.5-2.5Zm1,0c0,.827,.673,1.5,1.5,1.5s1.5-.673,1.5-1.5-.673-1.5-1.5-1.5-1.5,.673-1.5,1.5Zm6.174,14.854c-.484,.417-1.111,.646-1.765,.646-1.168,0-2.315-.719-2.668-1.673-.145-.393-.793-.393-.938,0-.353,.954-1.499,1.673-2.667,1.673s-2.315-.719-2.668-1.673c-.145-.393-.793-.393-.938,0-.353,.954-1.5,1.673-2.668,1.673s-2.314-.719-2.667-1.673c-.145-.393-.793-.393-.938,0-.353,.954-1.5,1.673-2.668,1.673-.653,0-1.28-.229-1.765-.646-.21-.18-.525-.156-.705,.054-.181,.209-.156,.525,.053,.705,.666,.572,1.524,.887,2.417,.887,1.239,0,2.434-.594,3.137-1.494,.703,.9,1.896,1.494,3.136,1.494s2.434-.594,3.137-1.494c.703,.9,1.897,1.494,3.137,1.494s2.433-.594,3.136-1.494c.703,.9,1.897,1.494,3.137,1.494,.893,0,1.751-.315,2.417-.887,.209-.18,.233-.496,.053-.705-.179-.21-.494-.233-.705-.054ZM.174,16.113c.666,.572,1.524,.887,2.417,.887,1.239,0,2.434-.594,3.137-1.494,.703,.9,1.896,1.494,3.136,1.494s2.434-.594,3.137-1.494c.703,.9,1.897,1.494,3.137,1.494s2.433-.594,3.136-1.494c.703,.9,1.897,1.494,3.137,1.494,.893,0,1.751-.315,2.417-.887,.209-.18,.233-.496,.053-.705-.179-.21-.494-.233-.705-.054-.484,.417-1.111,.646-1.765,.646-1.168,0-2.315-.719-2.668-1.673-.145-.393-.793-.393-.938,0-.353,.954-1.499,1.673-2.667,1.673s-2.315-.719-2.668-1.673c-.145-.393-.793-.393-.938,0-.353,.954-1.5,1.673-2.668,1.673s-2.314-.719-2.667-1.673c-.145-.393-.793-.393-.938,0-.353,.954-1.5,1.673-2.668,1.673-.653,0-1.28-.229-1.765-.646-.21-.18-.525-.156-.705,.054-.181,.209-.156,.525,.053,.705Z"/></svg>
