<?xml version="1.0" encoding="UTF-8" standalone="no"?>
<svg xmlns:rdf="http://www.w3.org/1999/02/22-rdf-syntax-ns#" xmlns="http://www.w3.org/2000/svg" xml:space="preserve" height="236" viewBox="0 0 860.67841 235.66776" width="861" version="1.1" xmlns:cc="http://creativecommons.org/ns#" xmlns:dc="http://purl.org/dc/elements/1.1/"><defs><clipPath id="a" clipPathUnits="userSpaceOnUse"><path d="m0 595h842v-595h-842v595z"/></clipPath></defs><g transform="matrix(1.25 0 0 -1.25 -112 520)"><path d="m89.6 228h689v189h-689z" fill="#231f20"/><g clip-path="url(#a)"><g transform="translate(294 279)"><path d="m0 0c-10.1 0-14.9 9.84-14.9 31 0 21.1 4.73 31 14.9 31s14.9-9.83 14.9-31-4.7-31-14.9-31m0 68.4c-21.6 0-32.1-12.2-32.1-37.4s10.5-37.4 32.1-37.4 32.1 12.2 32.1 37.4-10.5 37.4-32.1 37.4" fill="#fff"/></g><g transform="translate(399 347)"><path d="m0 0-26.4-3.75v-4.51h0.59c5.05 0 10.4-0.901 10.4-11.6v-19.5c0-9.58-8.51-24.8-15.6-24.8-7.48 0-10.6 3.18-10.6 22.9v41.5l-27.1-3.85v-4.51h0.582c5.06 0 10.5-0.901 10.5-11.6v-33.9c0-10.9 2.45-21 20.2-21 12.5 0 18.9 10.8 22.1 16.8v-15.2h27.1v4.5h-0.582c-5.06 0-10.5 0.9-10.5 11.6v57.1l-0.7-0.1z" fill="#fff"/></g><g transform="translate(509 347)"><path d="m0 0-26.4-3.75v-4.51h0.588c5.05 0 10.5-0.901 10.5-11.6v-36c0-10.1-2.15-12.7-10.5-12.7h-0.588v-4.6h38.1v4.6h-0.584c-8.31 0-10.5 2.61-10.5 12.7v20.5c0 9.59 9.48 24.8 17.4 24.8 6.22 0 8.83-3.18 8.83-22.9v-22.5c0-10.1-2.15-12.7-10.5-12.7h-0.581v-4.6h38.1v4.6h-0.573c-8.31 0-10.5 2.61-10.5 12.7v35c0 10.9-2.22 21-18.4 21-13.6 0-20.5-10.9-23.9-17v17h-0.4z" fill="#fff"/></g><g transform="translate(432 320)"><path d="m0 0c0 7.75 0.9 20.8 13.5 20.8 11.6 0 11.9-9.64 12-20.8h-25.5zm41.6-6.89c0.983 23.5-7.74 34.2-27.5 34.2-20.5 0-31.3-12.1-31.3-34.9 0-25.3 13.4-39.9 36.6-39.9 10 0 17.9 3.01 20.5 4.01l0.386 0.156v6.82l-0.8-0.3c-4.5-1.8-8.9-2.6-13.3-2.6-19.1 0-26.2 19.6-26.2 31.9h41.6v0.609z" fill="#fff"/></g><g transform="translate(213 330)"><path d="m0 0h-8.76v28.8c0 8.6 0.784 10.5 9.06 10.5 14.5 0 21.2-6.4 21.2-20.1 0-12.9-7-19.2-21.5-19.2m68.8-72.6c-21.5 0-36.5 35-36.5 35s-13 29.5-15.3 31.6c14.8 2.74 23.2 7.22 23.2 27.2 0 23.8-27.9 26.4-39.9 26.4h-39.6-0.62v-5.04h0.62c10.6 0 12.4-2.05 12.4-13.7v-66c0-11.6-1.87-13.7-12.4-13.7h-0.62v-5.07h44.2v5.07h-0.609c-10.6 0-12.4 2.04-12.4 13.7v28.9c1.02 0 7.41-0.043 7.39 0 3.44-2.38 12.4-27.6 23.4-47 11.1-19.7 26.5-24.6 33.8-24.6 10.2 0 14.5 4.02 14.5 4.02l-0.952 3.29h-0.606z" fill="#fff"/></g><g transform="translate(742 320)"><path d="m0 0c-0.063 0.178-16.7-24.9-25.7-35.6-13.3-19.2-27.8-38-42-56.8h8.62c8.6 12.1 21.4 27.3 24.9 32.1 5.99 8.43 13.1 14.1 24 19.3 5.37 2.57 25.1 4.91 45.9 6.72v7.47c-4-0.141-6.84-0.235-8.06-0.264-9.11-0.225-27.5-2.67-39.9-2.67l-2.87-0.092c11 14.3 21.4 28.7 23.4 31.4 9.8 2.91 18.9 2.96 27.6 1.75v7.22c-9.76 1.29-20.2 1.2-32.5-2.16 0.028 0.01 6.8 7.34 6.86 7.34 2.8 2.22 16.3 1.81 16.3 1.81s5.56 9.63 5.72 9.63c-1.59 4.61-10.8 2.48-10.8 2.48s4.67 9.34 9.82 10.1c1.18 0.07 2.87 0.084 4.54 0.074v23.2c-19-26.2-49.3-66.3-49.3-66.3s9.08 3.41 13.5 3.16" fill="#fff"/></g><g transform="translate(626 343)"><path d="m0 0v1.16c-9.93-0.578-14.4 8.22-16.5 13 2.71 2.42 14.7 8.2 23 0.294 11.9 31.3 43.8 20.3 48.3 16.6 9.87-6.67 12-19 11.1-30.9 0-8.32 8.48-15.3 6.06-24.1-1.82-5.37-8.67-16.7-25.7-14.1-14.6 4.06-24.6 15.1-33.6 28.2 0 0-0.486 0.584-1.17 0.191-0.683-0.393-0.552-1.56-0.38-2.32 11.5-33.1 47.7-48.4 69.7-46.9 1.79 2.38 3.64 4.93 4.42 6.15-1.28 0.103-22.5-2.65-29.4 8.04-2.13 3.39 4.21 0.393 10.7 3.49 12.7 6.36 14.1 20.8 11.9 26.5-1.68 4.27-6.86 14.3-5.61 22.9 9.25 4.36 12.5 13.7 9.29 16.5-5.51 1.94-12 1.46-16.7 5.33-9.57 14.6-50.4 18-64.5-5.8-4.55 1.55-19 2.42-25.7-8.13 0.855-10.3 8.11-17.5 13.2-20.9-8.96-22.2-13.8-73.4 6.66-111h12.8c-23.9 30.4-28.5 82.3-7.86 116" fill="#fff"/></g><g transform="translate(663 340)"><path d="m0 0c1.64 0.486 4.65-0.098 4.45 2.32-4.06 8.08-12.8 12.7-21.6 11.9-0.7-0.1-1.9-1-1.6-1.8 2.4-8.34 11.3-11.2 18.8-12.4" fill="#fff"/></g></g></g></svg>
